<svg xmlns="http://www.w3.org/2000/svg" viewBox="0 0 24 24" fill="none" aria-hidden="true">
  <path stroke="#c9a961" stroke-width="1.4" stroke-linecap="round" d="M12 3v3M12 18v3M4.5 12h3M16.5 12h3"/>
  <path fill="#c9a961" d="M12 8.5l1.2 2.4 2.6.4-1.9 1.8.5 2.6L12 14.9l-2.4 1.3.5-2.6-1.9-1.8 2.6-.4z"/>
  <path fill="#c9a961" opacity=".65" d="M6.5 6.5l1 2 2.2.3-1.6 1.5.4 2.2-2-1.1-2 1.1.4-2.2-1.6-1.5 2.2-.3z"/>
  <path fill="#c9a961" opacity=".65" d="M17.3 15.2l.8 1.6 1.8.2-1.3 1.2.3 1.5-1.6-.9-1.6.9.3-1.5-1.3-1.2 1.8-.2z"/>
</svg>
